# xmcd
#
# Track frame offsets:
#	150
#	27132
#	40775
#	61932
#	82215
#	106013
#	134275
#	152037
#	177898
#	198431
#	219997
#
# Disc length: 3239 seconds
#
# Revision: 0
# Processed by: cddbd v1.5.2PL0 Copyright (c) Steve Scherf et al.
# Submitted via: audiograbber 1.83.01
#
DISCID=8b0ca50b
DTITLE=An American Starlet - The Duchess Of Hazard
DYEAR=2003
DGENRE=Alt. Country
TTITLE0=The Duchess Of Hazard
TTITLE1=Starstruck Brother
TTITLE2=Queen Elizabeth
TTITLE3=Half A Heart
TTITLE4=When We Sleep
TTITLE5=Maker's Lament
TTITLE6=Muzukashii, Baby
TTITLE7=Suitcase For A Heart
TTITLE8=The Dirt
TTITLE9=Hearts
TTITLE10=When I Sleep
EXTD=
EXTT0=
EXTT1=
EXTT2=
EXTT3=
EXTT4=
EXTT5=
EXTT6=
EXTT7=
EXTT8=
EXTT9=
EXTT10=
PLAYORDER=
